# xmcd
#
# Track frame offsets:
#	182
#	16095
#	28990
#	52385
#	72225
#	92412
#	102485
#	121037
#	135405
#	145160
#	160227
#	184450
#	209437
#	225597
#
# Disc length: 3595 seconds
#
# Revision: 0
# Processed by: cddbd v1.5.1PL0 Copyright (c) Steve Scherf et al.
# Submitted via: dBpowerAMP V4.0
#
DISCID=c40e090e
DTITLE=Various Artist - 100 km de musiques
DYEAR=1989
DGENRE=Blues
TTITLE0=Natural ball- Otis Rush
TTITLE1=Jump little children-Brownie Mac Ghee
TTITLE2=Feel so bad- Jimmy Dawkins
TTITLE3=Shake it up- Clifton Chenier
TTITLE4=Memphis blues- Booker T
TTITLE5=Baby don't treat me this way- Johnny Waters
TTITLE6=Black president-J.C. Burris
TTITLE7=Mean woman- Sonny Terry
TTITLE8=Mean mistreater- Robert Lockwood
TTITLE9=The charm- Eddie Boyd
TTITLE10=Lonesome blud- Luther Tucker
TTITLE11=Constipation blues- Screamin' Jay Hawkins
TTITLE12=Three two one boogie- Memphis Slim
TTITLE13=Devil woman- Sugar Blue
EXTD=
EXTT0=
EXTT1=
EXTT2=
EXTT3=
EXTT4=
EXTT5=
EXTT6=
EXTT7=
EXTT8=
EXTT9=
EXTT10=
EXTT11=
EXTT12=
EXTT13=
PLAYORDER=
